<?xml version="1.0" standalone="no"?>
<!DOCTYPE svg PUBLIC "-//W3C//DTD SVG 20010904//EN"
 "http://www.w3.org/TR/2001/REC-SVG-20010904/DTD/svg10.dtd">
<svg version="1.0" xmlns="http://www.w3.org/2000/svg"
 width="260.000000pt" height="260.000000pt" viewBox="0 0 260.000000 260.000000"
 preserveAspectRatio="xMidYMid meet">
<metadata>
Created by potrace 1.11, written by Peter Selinger 2001-2013
</metadata>
<g transform="translate(0.000000,260.000000) scale(0.100000,-0.100000)"
fill="#000000" stroke="none">
<path d="M590 2285 c-46 -21 -77 -51 -103 -100 -30 -57 -30 -183 1 -241 26
-50 69 -88 118 -104 49 -16 169 -8 217 15 l37 19 0 98 0 98 -80 0 c-79 0 -80
0 -80 -25 0 -23 3 -25 50 -25 l50 0 0 -59 c0 -65 -1 -65 -72 -76 -100 -15
-170 32 -190 127 -40 189 107 293 285 202 27 -14 27 -14 27 15 0 24 -7 34 -32
48 -47 24 -182 28 -228 8z"/>
<path d="M120 2065 l0 -225 30 0 30 0 0 90 0 90 66 0 c114 0 166 42 166 135 0
101 -50 135 -196 135 l-96 0 0 -225z m201 148 c28 -28 28 -88 0 -116 -14 -15
-37 -22 -81 -25 l-60 -4 0 87 0 87 60 -4 c44 -3 67 -10 81 -25z"/>
<path d="M1520 1345 l0 -235 35 0 35 0 0 76 0 76 81 -76 c72 -68 85 -76 119
-76 l39 0 -92 90 -92 90 35 33 c19 17 60 53 90 80 l55 47 -40 0 c-35 0 -50 -9
-115 -66 l-75 -65 -3 130 -3 131 -34 0 -35 0 0 -235z"/>
<path d="M175 1556 c-45 -20 -67 -50 -72 -99 -10 -84 30 -122 150 -147 68 -14
97 -38 97 -80 0 -63 -69 -92 -161 -67 -30 8 -62 18 -72 22 -16 7 -18 3 -15
-26 3 -29 8 -35 43 -45 55 -17 159 -17 198 0 48 20 69 50 75 104 8 89 -39 137
-153 158 -70 12 -95 30 -95 68 0 73 89 94 206 49 12 -4 15 1 12 28 -2 26 -9
35 -28 40 -43 12 -154 9 -185 -5z"/>
<path d="M596 1439 c-21 -17 -26 -18 -26 -5 0 12 -10 16 -35 16 l-35 0 0 -235
0 -235 35 0 35 0 0 81 0 80 26 -20 c37 -29 112 -29 149 1 85 67 85 249 0 316
-37 30 -112 30 -149 1z m116 -58 c31 -28 33 -33 33 -101 0 -69 -1 -73 -34
-102 -27 -25 -39 -29 -65 -24 -53 11 -70 37 -74 113 -3 76 10 111 48 130 38
19 57 16 92 -16z"/>
<path d="M933 1446 c-25 -12 -33 -21 -33 -42 0 -21 3 -25 18 -19 98 40 168 25
184 -42 5 -20 2 -21 -78 -25 -78 -3 -86 -5 -113 -33 -45 -46 -45 -112 -1 -157
29 -28 35 -30 90 -26 45 3 66 10 85 28 l25 23 0 -21 c0 -18 6 -22 30 -22 l30
0 0 103 c-1 128 -11 172 -49 211 -26 26 -39 30 -93 33 -40 2 -75 -2 -95 -11z
m167 -212 c-11 -47 -35 -72 -76 -80 -46 -9 -84 16 -84 55 0 45 24 57 121 60
l47 1 -8 -36z"/>
<path d="M1366 1439 c-21 -17 -26 -18 -26 -5 0 12 -10 16 -35 16 l-35 0 0
-170 0 -170 35 0 35 0 0 119 c0 112 2 122 24 148 20 23 32 28 70 27 44 -1 46
0 46 28 0 26 -2 28 -44 28 -29 0 -52 -7 -70 -21z"/>
<path d="M470 815 c0 -32 2 -35 30 -35 28 0 30 3 30 35 0 32 -2 35 -30 35 -28
0 -30 -3 -30 -35z"/>
<path d="M120 605 l0 -225 140 0 140 0 0 25 0 25 -110 0 -110 0 0 200 0 200
-30 0 -30 0 0 -225z"/>
<path d="M630 770 c0 -43 -3 -50 -20 -50 -15 0 -20 -7 -20 -25 0 -18 5 -25 20
-25 18 0 20 -7 20 -82 1 -173 22 -208 121 -208 56 0 59 1 59 25 0 22 -4 25
-36 25 -70 0 -74 7 -74 130 l0 110 55 0 c52 0 55 1 55 25 0 24 -3 25 -55 25
l-55 0 0 50 0 50 -35 0 -35 0 0 -50z"/>
<path d="M945 717 c-113 -52 -127 -244 -24 -318 41 -29 134 -37 194 -17 33 11
41 18 43 42 3 22 0 27 -12 23 -49 -19 -103 -28 -137 -22 -45 8 -89 53 -89 91
l0 24 125 0 125 0 0 35 c0 46 -21 94 -54 124 -32 30 -124 39 -171 18z m143
-73 c41 -47 32 -54 -73 -54 -104 0 -112 6 -75 53 35 44 109 45 148 1z"/>
<path d="M470 550 l0 -170 30 0 30 0 0 170 0 170 -30 0 -30 0 0 -170z"/>
</g>
</svg>
